<?xml version="1.0" encoding="utf-8"?>
<!-- Generator: Adobe Illustrator 23.0.6, SVG Export Plug-In . SVG Version: 6.00 Build 0)  -->
<svg version="1.1" id="Layer_1" xmlns="http://www.w3.org/2000/svg" xmlns:xlink="http://www.w3.org/1999/xlink" x="0px" y="0px"
	 viewBox="0 0 162 35" style="enable-background:new 0 0 162 35;" xml:space="preserve">
<style type="text/css">
	.st0{fill:#FFFFFF;}
</style>
<path class="st0" d="M53.8,15C45.6,1,29.9,1,21.7,15c2.7-7.3,9.1-12,16.1-12C44.7,3,51.1,7.7,53.8,15L53.8,15z M37.8,28.1
	c-2.6,0-5-1.3-6.5-3.2h3.9c0.8,0.4,1.7,0.7,2.6,0.7c1,0,1.9-0.2,2.6-0.7h3.1h0.7C42.8,26.8,40.5,28.1,37.8,28.1L37.8,28.1z
	 M37.8,34.6H19.9c-0.7,0-1.3-0.6-1.3-1.3l0,0c0-0.7,0.6-1.3,1.3-1.3h9.3c-0.9-0.6-1.8-1.3-2.6-2.1H13.7c-0.7,0-1.3-0.6-1.3-1.3l0,0
	c0-0.7,0.6-1.3,1.3-1.3h10.9c-0.5-0.8-0.9-1.6-1.3-2.4H8.2c-0.7,0-1.3-0.6-1.3-1.3c0-0.7,0.6-1.3,1.3-1.3h14.4h21H53
	C51.5,29.3,45.3,34.6,37.8,34.6L37.8,34.6z M27.4,19.7h26.3c2.1,0,2.3-1.2,2-2.7C54.2,8.7,48.3,2.4,39.6,1.3c-0.1-1-0.9-1.7-1.8-1.7
	S36.1,0.3,36,1.2c-2,0.2-4.1,0.9-5.2,1.4c-6.4,2.9-10,7.6-11.6,14.6H1.3c-0.7,0-1.3,0.6-1.3,1.3c0,0.7,0.6,1.3,1.3,1.3h22.6H27.4z"
	/>
<g>
	<path class="st0" d="M60.9,11.6c0-0.4,0.1-0.7,0.4-1s0.6-0.4,1.1-0.4h3.2c0.9,0,1.8,0.2,2.4,0.6c0.7,0.4,1.2,0.9,1.5,1.5
		c0.3,0.6,0.5,1.4,0.5,2.2c0,0.8-0.2,1.5-0.5,2.1s-0.8,1.1-1.4,1.5c-0.6,0.4-1.3,0.5-2.1,0.5h-2.3v2.6c0,0.5-0.1,0.9-0.4,1.1
		c-0.3,0.3-0.6,0.4-1,0.4c-0.9,0-1.4-0.6-1.4-1.5V11.6z M63.7,12.8v3.4h1.6c0.5,0,0.9-0.2,1.2-0.5c0.3-0.3,0.5-0.7,0.5-1.2
		c0-0.5-0.2-0.9-0.5-1.3c-0.3-0.3-0.8-0.5-1.4-0.5H63.7z"/>
	<path class="st0" d="M78.1,18.9h-4.9c0,0.4,0.2,0.7,0.5,1c0.3,0.3,0.9,0.5,1.7,0.5c0.4,0,0.7,0,0.9-0.1c0.3-0.1,0.6-0.2,1-0.4
		c0.4-0.2,0.7-0.3,0.9-0.3c0.3,0,0.6,0.1,0.8,0.3s0.3,0.5,0.3,0.9c0,0.4-0.2,0.8-0.6,1.1s-0.9,0.6-1.6,0.8c-0.7,0.2-1.3,0.3-2,0.3
		c-1,0-1.8-0.2-2.5-0.6c-0.7-0.4-1.3-1-1.7-1.8c-0.4-0.7-0.6-1.6-0.6-2.5c0-0.6,0.1-1.3,0.3-1.9s0.6-1.1,1-1.6
		c0.4-0.5,0.9-0.8,1.5-1.1c0.6-0.3,1.2-0.4,1.9-0.4c0.9,0,1.6,0.2,2.3,0.6c0.7,0.4,1.2,1,1.5,1.7c0.4,0.7,0.6,1.5,0.6,2.3
		c0,0.5-0.1,0.8-0.3,0.9C78.9,18.8,78.5,18.9,78.1,18.9z M73.2,17h3.5c0-0.2-0.1-0.4-0.2-0.7c-0.1-0.3-0.4-0.5-0.6-0.7
		c-0.3-0.2-0.6-0.3-0.9-0.3c-0.5,0-0.9,0.2-1.2,0.6C73.4,16.3,73.2,16.7,73.2,17z"/>
	<path class="st0" d="M79.6,21c0-0.4,0.1-0.7,0.3-0.9s0.5-0.4,0.8-0.4c0.2,0,0.4,0,0.6,0.1c0.2,0.1,0.4,0.2,0.7,0.3
		c0.3,0.1,0.5,0.2,0.7,0.3c0.2,0.1,0.4,0.1,0.6,0.1c0.5,0,0.8-0.2,0.8-0.5c0-0.2-0.1-0.3-0.2-0.4s-0.4-0.2-0.9-0.4
		c-0.5-0.2-0.8-0.3-1-0.4c-0.5-0.2-0.9-0.4-1.2-0.6c-0.3-0.2-0.5-0.5-0.7-0.8c-0.2-0.3-0.2-0.7-0.2-1.2c0-0.5,0.1-1,0.4-1.5
		c0.3-0.5,0.7-0.9,1.2-1.2c0.5-0.3,1.2-0.4,1.8-0.4c0.4,0,0.9,0.1,1.3,0.2c0.5,0.1,0.9,0.4,1.2,0.6c0.3,0.3,0.5,0.7,0.5,1.1
		c0,0.3-0.1,0.6-0.3,0.8c-0.2,0.2-0.5,0.3-0.8,0.3c-0.1,0-0.3,0-0.5-0.1c-0.2-0.1-0.4-0.2-0.6-0.2s-0.4-0.1-0.6-0.2
		c-0.2-0.1-0.4-0.1-0.5-0.1c-0.2,0-0.4,0-0.5,0.1c-0.1,0.1-0.2,0.2-0.2,0.4c0,0.2,0.2,0.4,0.6,0.6c0.5,0.2,1,0.4,1.6,0.6
		c0.6,0.2,1.1,0.6,1.4,1c0.4,0.4,0.6,0.9,0.6,1.6c0,0.6-0.2,1.1-0.5,1.6c-0.3,0.5-0.7,0.8-1.3,1.1c-0.5,0.2-1.1,0.4-1.7,0.4
		c-1.1,0-2.1-0.2-2.8-0.7C79.9,21.9,79.6,21.5,79.6,21z"/>
	<path class="st0" d="M87.9,15.3c0.4-0.7,0.8-1.2,1.4-1.6c0.6-0.4,1.2-0.6,1.9-0.7c0.6,0,1.1,0.1,1.5,0.3c0.4,0.2,0.7,0.4,1,0.8
		c0.1-0.3,0.3-0.5,0.5-0.6c0.2-0.1,0.5-0.2,0.7-0.2c0.4,0,0.7,0.1,1,0.4c0.3,0.3,0.4,0.6,0.4,1v6.6c0,0.3-0.1,0.6-0.3,0.9
		c-0.2,0.3-0.5,0.4-0.9,0.5c-0.4,0-0.7-0.1-0.9-0.3c-0.2-0.2-0.4-0.4-0.5-0.6c-0.5,0.7-1.3,1-2.3,1c-0.8,0-1.6-0.2-2.2-0.7
		c-0.6-0.5-1.1-1.1-1.5-1.8s-0.5-1.5-0.6-2.4C87.3,17,87.5,16.1,87.9,15.3z M91.8,15.7c-0.6,0-1,0.2-1.3,0.7c-0.3,0.4-0.5,1-0.5,1.6
		c0,0.6,0.2,1.2,0.5,1.6s0.8,0.7,1.4,0.7c0.4,0,0.7-0.1,1-0.3c0.3-0.2,0.5-0.5,0.6-0.8c0.1-0.3,0.2-0.7,0.2-1.2
		c0-0.7-0.2-1.2-0.5-1.6C92.9,15.9,92.4,15.7,91.8,15.7z"/>
	<path class="st0" d="M100.4,14.1c0.2-0.3,0.5-0.6,0.9-0.8c0.4-0.2,0.9-0.3,1.7-0.3c0.9,0,1.6,0.3,2.2,0.8c0.6,0.5,0.9,1.3,0.9,2.4
		v5.1c0,0.4-0.1,0.7-0.4,1c-0.3,0.3-0.6,0.4-1,0.4c-0.4,0-0.7-0.1-1-0.4c-0.3-0.3-0.4-0.6-0.4-1V17c0-0.3-0.1-0.6-0.2-0.8
		c-0.1-0.3-0.3-0.4-0.5-0.6c-0.2-0.1-0.5-0.2-0.8-0.2c-0.5,0-0.9,0.2-1.1,0.5c-0.3,0.3-0.4,0.7-0.4,1.2v4.3c0,0.4-0.1,0.7-0.4,1
		c-0.3,0.3-0.6,0.4-1,0.4c-0.4,0-0.7-0.1-1-0.4c-0.3-0.3-0.4-0.6-0.4-1v-6.7c0-0.4,0.1-0.7,0.4-1c0.3-0.3,0.6-0.4,1-0.4
		c0.3,0,0.6,0.1,0.9,0.3C100.2,13.7,100.3,13.9,100.4,14.1z"/>
	<path class="st0" d="M107.6,11.7c0-0.4,0.1-0.8,0.4-1s0.6-0.4,1-0.4h3.3c1.3,0,2.3,0.3,3.1,0.8s1.4,1.1,1.8,1.8
		c0.6,1,0.9,2.2,0.9,3.6c0,0.8-0.1,1.6-0.4,2.3c-0.3,0.7-0.7,1.4-1.2,2c-0.5,0.6-1.1,1-1.8,1.4c-0.7,0.3-1.5,0.5-2.3,0.5h-3.4
		c-0.4,0-0.8-0.1-1.1-0.4c-0.3-0.3-0.4-0.6-0.4-1V11.7z M110.4,12.8V20h1.6c0.9,0,1.7-0.3,2.3-1c0.2-0.3,0.4-0.6,0.6-1.1
		c0.1-0.5,0.2-1,0.2-1.5c0-1.1-0.2-1.9-0.7-2.4c-0.6-0.7-1.4-1.1-2.3-1.1H110.4z"/>
	<path class="st0" d="M127.7,14.7v4.6c0,0.8-0.2,1.4-0.6,2s-0.9,0.9-1.5,1.2c-0.6,0.3-1.4,0.4-2.1,0.4c-1.2,0-2.2-0.3-3-0.9
		c-0.8-0.6-1.2-1.5-1.2-2.7v-4.6c0-0.4,0.1-0.7,0.4-1c0.3-0.3,0.6-0.4,1-0.4c0.4,0,0.7,0.1,1,0.4c0.3,0.3,0.4,0.6,0.4,1v4.2
		c0,0.5,0.1,0.9,0.4,1.1s0.6,0.4,1,0.4c0.4,0,0.8-0.1,1.1-0.4c0.3-0.3,0.5-0.6,0.5-1.1v-4.2c0-0.4,0.1-0.7,0.4-1
		c0.2-0.3,0.6-0.4,0.9-0.4c0.4,0,0.7,0.1,1,0.4C127.6,13.9,127.7,14.3,127.7,14.7z"/>
	<path class="st0" d="M129.1,21.3V10.7c0-0.4,0.1-0.7,0.4-1s0.6-0.4,1-0.4c0.4,0,0.7,0.1,1,0.4c0.3,0.3,0.4,0.6,0.4,1v10.7
		c0,0.4-0.1,0.7-0.4,1c-0.3,0.3-0.6,0.4-1,0.4c-0.4,0-0.7-0.1-1-0.4C129.2,22.1,129.1,21.7,129.1,21.3z"/>
	<path class="st0" d="M141.5,14.7v4.6c0,0.8-0.2,1.4-0.6,2s-0.9,0.9-1.5,1.2c-0.6,0.3-1.4,0.4-2.1,0.4c-1.2,0-2.2-0.3-3-0.9
		c-0.8-0.6-1.2-1.5-1.2-2.7v-4.6c0-0.4,0.1-0.7,0.4-1c0.3-0.3,0.6-0.4,1-0.4c0.4,0,0.7,0.1,1,0.4c0.3,0.3,0.4,0.6,0.4,1v4.2
		c0,0.5,0.1,0.9,0.4,1.1s0.6,0.4,1,0.4c0.4,0,0.8-0.1,1.1-0.4c0.3-0.3,0.5-0.6,0.5-1.1v-4.2c0-0.4,0.1-0.7,0.4-1
		c0.2-0.3,0.6-0.4,0.9-0.4c0.4,0,0.7,0.1,1,0.4C141.4,13.9,141.5,14.3,141.5,14.7z"/>
	<path class="st0" d="M143.2,15.3c0.4-0.7,0.8-1.2,1.4-1.6c0.6-0.4,1.2-0.6,1.9-0.7c0.6,0,1.1,0.1,1.5,0.3c0.4,0.2,0.7,0.4,1,0.8
		c0.1-0.3,0.3-0.5,0.5-0.6c0.2-0.1,0.5-0.2,0.7-0.2c0.4,0,0.7,0.1,1,0.4c0.3,0.3,0.4,0.6,0.4,1v6.6c0,0.3-0.1,0.6-0.3,0.9
		c-0.2,0.3-0.5,0.4-0.9,0.5c-0.4,0-0.7-0.1-0.9-0.3c-0.2-0.2-0.4-0.4-0.5-0.6c-0.5,0.7-1.3,1-2.3,1c-0.8,0-1.6-0.2-2.2-0.7
		c-0.6-0.5-1.1-1.1-1.5-1.8s-0.5-1.5-0.6-2.4C142.6,17,142.8,16.1,143.2,15.3z M147.1,15.7c-0.6,0-1,0.2-1.3,0.7
		c-0.3,0.4-0.5,1-0.5,1.6c0,0.6,0.2,1.2,0.5,1.6s0.8,0.7,1.4,0.7c0.4,0,0.7-0.1,1-0.3c0.3-0.2,0.5-0.5,0.6-0.8
		c0.1-0.3,0.2-0.7,0.2-1.2c0-0.7-0.2-1.2-0.5-1.6C148.2,15.9,147.7,15.7,147.1,15.7z"/>
	<path class="st0" d="M155.7,14.1c0.2-0.3,0.5-0.6,0.9-0.8c0.4-0.2,0.9-0.3,1.7-0.3c0.9,0,1.6,0.3,2.2,0.8c0.6,0.5,0.9,1.3,0.9,2.4
		v5.1c0,0.4-0.1,0.7-0.4,1c-0.3,0.3-0.6,0.4-1,0.4c-0.4,0-0.7-0.1-1-0.4c-0.3-0.3-0.4-0.6-0.4-1V17c0-0.3-0.1-0.6-0.2-0.8
		c-0.1-0.3-0.3-0.4-0.5-0.6c-0.2-0.1-0.5-0.2-0.8-0.2c-0.5,0-0.9,0.2-1.1,0.5c-0.3,0.3-0.4,0.7-0.4,1.2v4.3c0,0.4-0.1,0.7-0.4,1
		c-0.3,0.3-0.6,0.4-1,0.4c-0.4,0-0.7-0.1-1-0.4c-0.3-0.3-0.4-0.6-0.4-1v-6.7c0-0.4,0.1-0.7,0.4-1c0.3-0.3,0.6-0.4,1-0.4
		c0.3,0,0.6,0.1,0.9,0.3C155.5,13.7,155.6,13.9,155.7,14.1z"/>
</g>
</svg>
